<?xml version="1.0" standalone="no"?>
<!DOCTYPE svg PUBLIC "-//W3C//DTD SVG 20010904//EN"
 "http://www.w3.org/TR/2001/REC-SVG-20010904/DTD/svg10.dtd">
<svg version="1.0" xmlns="http://www.w3.org/2000/svg"
 width="1152.000000pt" height="241.000000pt" viewBox="0 0 1152.000000 241.000000"
 preserveAspectRatio="xMidYMid meet">
<metadata>
Created by potrace 1.16, written by Peter Selinger 2001-2019
</metadata>
<g transform="translate(0.000000,241.000000) scale(0.100000,-0.100000)"
fill="#000000" stroke="none">
<path d="M450 1289 l0 -261 31 -92 c78 -236 237 -395 464 -466 l76 -24 82 27
c218 71 368 222 447 450 l30 87 0 270 0 270 -80 0 -80 0 0 -85 0 -85 -33 0
c-24 0 -41 8 -63 31 -63 67 -171 115 -283 125 -112 11 -236 -36 -330 -124 -24
-23 -43 -32 -67 -32 l-34 0 0 85 0 85 -80 0 -80 0 0 -261z m108 184 c-5 -45
-5 -46 7 -19 7 16 15 25 18 20 3 -5 5 -80 5 -166 0 -146 -7 -189 -23 -138 -3
11 -12 20 -20 20 -7 0 -16 6 -18 13 -4 9 -6 9 -6 0 -1 -7 8 -17 19 -23 11 -6
20 -17 20 -25 0 -8 6 -15 14 -15 15 0 26 -21 26 -52 0 -15 -5 -19 -17 -14 -14
5 -13 2 3 -11 25 -20 39 -57 28 -74 -4 -7 -14 0 -25 18 -10 15 -19 24 -19 20
0 -15 32 -57 41 -52 11 7 29 -28 29 -56 l0 -22 -25 23 c-14 13 -25 20 -25 16
0 -5 -8 -2 -17 5 -16 13 -17 12 -4 -3 7 -10 17 -16 21 -13 5 3 15 -4 23 -15 8
-12 20 -20 27 -18 17 4 49 -53 34 -59 -6 -2 -9 -18 -7 -36 l4 -32 -25 28 c-14
15 -26 23 -26 18 0 -22 -20 -10 -36 21 -11 22 -13 33 -5 36 17 6 13 20 -6 18
-21 -1 -44 65 -25 72 7 2 11 16 11 30 -2 24 -2 24 -6 5 -9 -46 -33 -18 -33 37
0 16 -5 32 -11 36 -7 4 -9 22 -6 44 2 20 0 45 -5 54 -7 12 -7 26 0 40 7 15 7
28 0 40 -7 12 -7 26 1 42 8 17 8 31 0 48 -8 16 -8 30 -1 42 7 12 6 25 -1 41
-8 19 -6 29 11 53 12 16 22 34 22 40 0 5 7 10 16 10 14 0 16 -8 12 -47z m962
18 c3 -12 10 -22 15 -22 6 1 10 -14 10 -31 0 -21 -5 -32 -12 -30 -7 1 -13 -5
-13 -13 0 -8 6 -14 13 -12 9 1 12 -31 12 -138 0 -154 -5 -192 -26 -187 -11 3
-12 1 -1 -9 19 -21 14 -48 -15 -76 -16 -15 -22 -23 -15 -19 19 11 15 -49 -4
-65 -15 -13 -17 -11 -12 18 2 18 0 29 -5 26 -5 -3 -6 -25 -2 -50 5 -35 3 -49
-11 -64 -35 -39 -40 -8 -5 36 10 13 11 16 1 8 -8 -7 -18 -13 -22 -13 -13 0 -9
44 6 65 7 11 16 37 19 59 6 35 5 37 -8 20 -13 -18 -14 -17 -15 12 0 17 7 37
15 44 13 10 15 9 15 -8 0 -12 4 -23 8 -26 5 -3 6 8 4 25 -2 16 -8 29 -13 29
-12 0 -12 57 0 64 5 4 12 0 14 -6 4 -8 6 -7 6 3 1 9 -5 19 -13 22 -15 6 -20
133 -6 142 5 3 3 19 -3 35 -9 23 -9 35 1 50 7 12 8 21 2 25 -17 10 -11 51 10
75 11 13 20 27 20 32 0 19 25 1 30 -21z m-470 -70 c0 -34 55 -43 65 -11 5 16
12 19 28 14 30 -9 30 -10 18 -32 -8 -16 -6 -21 16 -31 21 -9 29 -9 42 3 13 12
19 12 34 1 16 -11 16 -16 6 -34 -11 -17 -10 -23 5 -40 15 -17 22 -18 39 -9 17
8 23 7 34 -8 12 -17 11 -20 -7 -28 -23 -10 -25 -19 -9 -47 6 -13 18 -19 32
-17 30 4 37 -37 8 -45 -29 -7 -29 -57 -1 -64 30 -8 26 -43 -5 -43 -14 0 -29
-8 -35 -19 -14 -28 -13 -37 9 -47 17 -8 18 -11 6 -27 -10 -15 -18 -16 -32 -9
-14 8 -23 6 -40 -10 -22 -20 -22 -23 -6 -40 15 -17 15 -19 -2 -32 -17 -12 -21
-12 -31 2 -10 14 -16 14 -39 4 -22 -10 -26 -17 -21 -37 4 -14 2 -25 -3 -25 -5
0 -16 -3 -24 -6 -10 -3 -18 2 -22 16 -10 30 -59 24 -63 -7 -4 -31 -52 -33 -52
-3 0 12 -9 22 -24 26 -29 7 -46 -1 -46 -23 0 -10 -6 -13 -16 -9 -9 3 -20 6
-25 6 -5 0 -7 11 -3 25 5 20 1 27 -20 36 -19 9 -29 9 -39 0 -8 -6 -22 -9 -31
-5 -19 7 -19 9 -5 35 16 30 -15 63 -44 47 -16 -8 -23 -7 -33 7 -11 15 -10 20
6 34 26 22 11 61 -25 61 -31 0 -35 35 -5 43 14 3 20 14 20 32 0 18 -6 29 -20
32 -13 4 -20 14 -20 29 0 21 4 23 25 18 20 -5 27 -1 34 17 7 19 5 28 -9 40
-16 14 -17 19 -6 34 10 14 17 15 33 7 16 -9 24 -8 38 7 14 16 15 23 5 42 -11
19 -10 24 5 35 15 11 20 11 30 -3 11 -15 17 -15 40 -5 22 10 26 17 21 37 -4
14 -2 25 3 25 5 0 16 3 25 6 10 4 16 1 16 -9 0 -22 17 -30 46 -23 15 4 24 14
24 26 0 15 7 20 25 20 18 0 25 -5 25 -19z m-320 -653 c0 -5 -7 -8 -15 -4 -13
5 -14 2 -4 -17 15 -29 24 -37 16 -14 -8 22 11 22 35 0 20 -18 25 -48 6 -37 -8
5 -7 1 2 -10 13 -16 15 -17 20 -1 5 15 9 14 33 -5 15 -12 27 -28 27 -35 0 -8
4 -17 10 -20 6 -3 7 1 4 9 -8 21 15 21 44 0 13 -9 21 -22 18 -30 -3 -8 1 -17
9 -20 33 -13 14 -31 -32 -32 -56 0 -83 12 -83 37 0 10 -8 25 -17 32 -16 13
-17 12 -4 -4 21 -26 4 -33 -26 -11 -33 25 -42 47 -16 37 10 -3 16 -4 13 -2 -3
2 -15 13 -28 24 -20 16 -22 16 -16 2 10 -26 -12 -20 -35 9 -25 31 -28 52 -6
34 13 -11 12 -6 -2 20 -12 21 -14 34 -7 36 6 3 9 19 7 37 l-4 32 25 -28 c14
-15 26 -33 26 -39z m700 13 c0 -12 -40 -61 -50 -61 -5 0 -7 8 -3 18 3 9 4 15
2 12 -35 -41 -43 -54 -26 -41 14 11 17 11 17 -1 0 -26 -31 -60 -51 -55 -13 3
-19 -1 -21 -16 -4 -29 -56 -55 -70 -36 -8 11 -9 10 -4 -3 6 -20 -28 -48 -58
-48 -18 0 -18 1 -2 19 10 11 15 24 12 30 -3 5 5 18 19 29 17 13 21 22 13 24
-16 6 7 38 28 38 7 0 22 14 34 30 22 30 50 40 50 18 0 -7 7 -2 16 10 8 12 26
22 39 22 13 0 27 5 30 10 8 12 25 13 25 1z"/>
<path d="M915 1332 c-134 -63 -190 -202 -131 -327 13 -27 34 -60 47 -71 25
-23 90 -64 100 -64 15 0 -6 53 -29 70 l-25 20 69 0 c62 0 66 -2 44 -13 -17 -9
-27 -24 -31 -50 -6 -35 -5 -37 23 -37 19 0 28 -5 28 -16 0 -10 7 -14 18 -12 9
2 16 10 14 16 -1 7 10 12 26 12 26 0 28 2 24 35 -3 26 -12 40 -31 50 -25 13
-23 14 43 15 l69 0 -25 -20 c-23 -18 -44 -70 -29 -70 24 0 106 67 131 106 73
116 37 264 -83 338 -41 25 -60 30 -130 33 -65 3 -90 0 -122 -15z m130 -53 c5
-14 13 -17 36 -12 34 6 38 -6 9 -32 -20 -18 -20 -18 0 -32 27 -19 15 -46 -17
-39 -19 5 -25 1 -33 -20 -11 -29 -33 -28 -38 3 -2 15 -9 19 -26 16 -32 -7 -39
10 -15 35 16 17 17 22 5 22 -9 0 -20 10 -27 21 -10 20 -9 21 24 17 30 -3 37 0
41 17 7 26 34 28 41 4z"/>
<path d="M2040 1488 c0 -44 12 -49 28 -13 7 15 20 25 32 25 19 0 20 -6 20 -94
0 -71 -4 -97 -15 -106 -26 -22 -16 -30 35 -30 36 0 50 4 50 14 0 8 -7 16 -15
20 -12 4 -15 25 -15 101 0 89 1 95 20 95 12 0 25 -10 32 -25 16 -36 28 -31 28
13 l0 37 -100 0 -100 0 0 -37z"/>
<path d="M2328 1523 c-43 -2 -78 -8 -78 -13 0 -6 7 -10 15 -10 23 0 22 -195
-1 -204 -35 -13 2 -26 75 -26 l79 0 7 36 c8 47 -1 54 -28 22 -12 -15 -31 -28
-42 -30 -17 -3 -20 3 -23 45 l-3 47 36 0 c44 0 43 22 -1 30 -25 4 -29 10 -32
43 -3 30 0 37 15 37 23 0 38 -11 46 -32 11 -32 27 -19 27 22 0 22 -3 39 -7 38
-5 -1 -43 -4 -85 -5z"/>
<path d="M2522 1510 c-45 -27 -72 -76 -72 -128 0 -37 6 -50 34 -78 27 -27 42
-34 73 -34 38 0 113 40 113 60 0 13 -3 13 -36 -5 -61 -32 -116 -10 -135 53
-30 101 77 173 135 90 13 -18 18 -20 25 -10 13 22 1 60 -22 66 -41 11 -82 6
-115 -14z"/>
<path d="M3312 1513 c-123 -60 -95 -243 36 -243 80 0 142 62 142 141 0 95 -89
146 -178 102z m79 -29 c32 -16 59 -66 59 -107 0 -39 -36 -77 -73 -77 -87 0
-137 135 -69 186 23 18 47 17 83 -2z"/>
<path d="M3785 1512 c-52 -33 -68 -59 -73 -117 -4 -52 -3 -56 31 -90 30 -30
42 -35 80 -35 121 0 190 141 109 223 -39 38 -103 47 -147 19z m101 -46 c29
-29 34 -41 34 -80 0 -54 -25 -86 -68 -86 -81 0 -134 119 -77 175 34 35 70 32
111 -9z"/>
<path d="M4071 1513 c-47 -24 -71 -67 -71 -131 0 -46 4 -58 29 -83 33 -33 79
-38 121 -14 32 18 40 18 40 0 0 -8 7 -15 15 -15 11 0 15 11 15 38 0 20 3 47 6
60 6 21 3 22 -45 22 -28 0 -51 -4 -51 -10 0 -5 6 -10 14 -10 35 0 30 -54 -5
-63 -75 -20 -130 100 -78 167 18 23 28 27 63 24 31 -2 43 -8 51 -25 15 -35 35
-28 35 11 0 30 -4 34 -31 40 -48 9 -71 7 -108 -11z"/>
<path d="M4464 1516 c-122 -54 -98 -246 32 -246 33 0 104 39 104 57 0 11 -6
11 -30 -2 -71 -36 -129 -8 -137 68 -6 54 13 92 53 107 31 12 74 -4 81 -30 9
-34 33 -24 33 14 0 30 -4 34 -31 40 -46 9 -70 7 -105 -8z"/>
<path d="M4715 1493 c-9 -21 -30 -73 -46 -115 -17 -43 -35 -78 -40 -78 -5 0
-9 -7 -9 -15 0 -11 12 -15 45 -15 48 0 55 6 29 25 -12 8 -15 20 -10 39 6 24
11 27 44 24 35 -3 38 -6 46 -45 8 -40 11 -43 41 -43 41 0 49 9 28 33 -10 10
-34 65 -54 120 -20 56 -41 103 -47 105 -6 2 -18 -14 -27 -35z"/>
<path d="M6133 1523 c-40 -2 -73 -8 -73 -13 0 -6 7 -10 15 -10 23 0 22 -195
-1 -204 -35 -13 2 -26 75 -26 l78 0 6 37 c8 48 1 53 -26 21 -12 -14 -32 -29
-44 -33 -22 -6 -23 -3 -23 44 0 50 1 51 30 51 20 0 30 5 30 15 0 9 -9 15 -25
15 -27 0 -33 8 -37 50 -3 21 1 25 22 25 16 0 28 -8 35 -22 16 -37 35 -28 35
17 0 26 -4 39 -12 38 -7 -1 -46 -4 -85 -5z"/>
<path d="M6525 1518 c-27 -16 -44 -39 -45 -61 0 -18 25 -45 84 -94 31 -25 33
-48 7 -63 -27 -14 -47 -4 -61 31 -18 42 -32 36 -28 -13 3 -39 6 -43 32 -46 65
-8 116 27 116 78 0 25 -9 37 -50 66 -36 26 -50 43 -50 60 0 35 47 34 56 -1 9
-38 34 -32 34 9 0 45 -46 62 -95 34z"/>
<path d="M6770 1488 c0 -43 16 -50 30 -13 6 15 17 25 30 25 19 0 20 -6 20 -94
0 -71 -4 -97 -15 -106 -26 -22 -16 -30 35 -30 38 0 50 4 50 15 0 8 -4 15 -9
15 -5 0 -11 45 -13 100 -3 90 -1 100 15 100 9 0 23 -11 29 -25 16 -36 28 -31
28 13 l0 37 -100 0 -100 0 0 -37z"/>
<path d="M7460 1488 c0 -43 16 -50 30 -13 6 15 17 25 30 25 19 0 20 -6 20 -99
0 -79 -3 -100 -15 -105 -32 -12 -13 -26 35 -26 50 0 59 7 40 26 -6 6 -12 54
-14 107 -3 90 -2 97 15 97 11 0 24 -11 31 -25 16 -36 28 -31 28 13 l0 37 -100
0 -100 0 0 -37z"/>
<path d="M8037 1498 c-7 -18 -26 -66 -41 -106 -15 -40 -34 -79 -42 -87 -25
-24 -15 -35 31 -35 46 0 58 12 29 28 -12 7 -15 17 -10 36 5 22 12 26 41 26 29
0 37 -5 45 -26 6 -14 9 -34 8 -43 -2 -12 6 -17 35 -19 39 -3 49 12 25 36 -7 7
-28 58 -48 114 -19 56 -41 103 -47 105 -7 3 -18 -11 -26 -29z"/>
<path d="M2690 1511 c0 -5 7 -11 15 -15 12 -4 15 -25 15 -100 0 -74 -3 -95
-15 -100 -32 -12 -13 -26 35 -26 36 0 50 4 50 14 0 8 -5 16 -11 18 -5 2 -11
24 -12 48 l-2 45 50 0 50 0 -3 -45 c-2 -25 -7 -49 -12 -54 -19 -19 -9 -26 40
-26 38 0 50 4 50 15 0 8 -7 15 -15 15 -12 0 -15 18 -15 100 0 82 3 100 15 100
8 0 15 5 15 10 0 6 -22 10 -50 10 -54 0 -58 -3 -34 -27 8 -9 14 -27 12 -42 -3
-24 -6 -26 -53 -26 -47 0 -50 1 -52 27 -1 15 5 34 13 42 22 23 18 26 -36 26
-27 0 -50 -4 -50 -9z"/>
<path d="M2960 1510 c0 -5 7 -10 15 -10 21 0 21 -143 0 -184 -22 -42 -19 -46
30 -46 46 0 56 11 31 35 -15 16 -32 128 -21 145 3 5 38 -32 76 -85 39 -52 74
-95 78 -95 5 0 11 48 14 107 4 82 9 110 21 119 26 19 19 24 -34 24 -27 0 -50
-4 -50 -10 0 -5 4 -10 10 -10 14 0 32 -70 28 -108 l-3 -34 -59 81 c-57 77 -62
81 -98 81 -21 0 -38 -4 -38 -10z"/>
<path d="M3520 1514 c0 -3 6 -11 13 -18 8 -9 14 -46 16 -100 2 -71 0 -87 -13
-92 -9 -3 -16 -12 -16 -19 0 -10 22 -14 80 -17 l80 -3 6 32 c3 18 3 41 -1 50
-5 15 -9 13 -20 -13 -12 -29 -55 -51 -70 -36 -3 3 -5 50 -5 104 0 80 3 98 15
98 8 0 15 5 15 10 0 6 -22 10 -50 10 -27 0 -50 -3 -50 -6z"/>
<path d="M4870 1510 c0 -5 5 -10 10 -10 6 0 10 -40 10 -100 0 -60 -4 -100 -10
-100 -5 0 -10 -7 -10 -15 0 -12 15 -15 79 -15 84 0 90 5 91 63 0 24 -21 22
-27 -3 -3 -12 -18 -23 -37 -28 l-31 -8 -3 99 c-2 86 0 101 15 113 16 12 12 13
-34 14 -29 0 -53 -4 -53 -10z"/>
<path d="M5160 1510 c0 -5 4 -10 9 -10 5 0 11 -43 13 -96 3 -86 5 -98 27 -115
28 -23 90 -25 131 -4 17 9 30 17 31 18 0 1 4 45 8 96 5 57 12 96 19 99 28 9 8
22 -33 22 -42 0 -61 -13 -32 -22 8 -3 12 -31 12 -93 0 -87 -1 -89 -27 -105
-25 -13 -31 -13 -55 0 -27 15 -28 19 -31 108 -2 77 0 92 13 92 8 0 15 5 15 10
0 6 -22 10 -50 10 -27 0 -50 -4 -50 -10z"/>
<path d="M5430 1510 c0 -5 5 -10 11 -10 16 0 8 -192 -8 -198 -7 -2 -13 -10
-13 -18 0 -10 13 -14 45 -14 50 0 52 3 29 48 -9 20 -14 51 -12 87 l3 56 70
-96 c39 -52 75 -95 82 -95 8 0 12 35 15 112 2 78 7 113 16 116 28 9 9 22 -33
22 -48 0 -52 -4 -30 -34 9 -12 15 -42 15 -75 l0 -55 -60 82 c-55 76 -63 82
-95 82 -19 0 -35 -4 -35 -10z"/>
<path d="M5810 1511 c0 -5 6 -11 14 -14 7 -3 31 -55 52 -116 22 -61 44 -111
50 -111 7 0 31 48 54 106 24 58 49 111 56 119 22 21 17 25 -31 25 -48 0 -53
-4 -31 -26 16 -15 12 -37 -18 -109 l-17 -40 -25 69 c-13 38 -24 78 -24 88 0
14 -8 18 -40 18 -22 0 -40 -4 -40 -9z"/>
<path d="M6250 1510 c0 -5 7 -10 15 -10 23 0 22 -195 -1 -204 -28 -11 -4 -26
41 -26 45 0 69 15 41 26 -11 4 -16 19 -16 48 l1 41 23 -37 c12 -21 31 -47 41
-58 22 -24 75 -28 75 -5 0 8 -6 15 -14 15 -7 0 -27 21 -44 47 l-30 46 23 19
c28 22 39 62 25 88 -9 18 -21 20 -95 20 -50 0 -85 -4 -85 -10z"/>
<path d="M6980 1510 c0 -5 4 -10 10 -10 14 0 80 -135 80 -165 0 -14 -7 -28
-15 -31 -8 -4 -15 -12 -15 -20 0 -10 14 -14 50 -14 52 0 61 10 35 36 -8 9 -15
24 -15 35 0 24 78 159 91 159 5 0 9 5 9 10 0 6 -22 10 -50 10 -27 0 -50 -4
-50 -10 0 -5 7 -10 15 -10 20 0 19 -24 -2 -67 l-16 -35 -23 43 c-13 24 -23 52
-24 62 0 13 -9 17 -40 17 -22 0 -40 -4 -40 -10z"/>
<path d="M7680 1510 c0 -5 5 -10 10 -10 6 0 10 -40 10 -100 0 -60 -4 -100 -10
-100 -5 0 -10 -7 -10 -15 0 -11 12 -15 44 -15 46 0 70 15 42 26 -12 4 -16 20
-16 55 l0 49 50 0 50 0 0 -50 c0 -36 -4 -52 -15 -56 -27 -11 -5 -24 41 -24 32
0 44 4 44 15 0 8 -4 15 -10 15 -6 0 -10 40 -10 100 0 60 4 100 10 100 6 0 10
5 10 10 0 6 -22 10 -50 10 -27 0 -50 -4 -50 -10 0 -5 7 -10 15 -10 11 0 15
-11 15 -40 l0 -40 -50 0 -50 0 0 40 c0 29 4 40 15 40 8 0 15 5 15 10 0 6 -22
10 -50 10 -27 0 -50 -4 -50 -10z"/>
<path d="M8190 1511 c0 -5 5 -11 12 -13 21 -7 9 -198 -13 -198 -5 0 -9 -7 -9
-15 0 -11 12 -15 45 -15 32 0 45 4 45 14 0 8 -5 16 -12 18 -8 3 -14 33 -16 84
l-4 79 32 -40 c18 -22 53 -68 77 -103 25 -35 49 -60 54 -55 4 4 9 57 11 117 2
76 7 111 16 114 28 9 9 22 -33 22 -50 0 -51 -1 -29 -34 10 -16 14 -41 12 -72
l-3 -48 -58 77 c-52 70 -61 77 -92 77 -19 0 -35 -4 -35 -9z"/>
<path d="M8450 1510 c0 -5 7 -10 15 -10 23 0 22 -195 -1 -204 -35 -13 2 -26
75 -26 l79 0 7 36 c8 47 -1 54 -28 22 -12 -14 -32 -29 -44 -33 -23 -6 -23 -6
-23 99 0 88 3 106 15 106 8 0 15 5 15 10 0 6 -25 10 -55 10 -30 0 -55 -4 -55
-10z"/>
<path d="M8610 1511 c0 -5 7 -11 15 -14 8 -4 28 -33 45 -66 33 -66 39 -125 14
-135 -28 -11 -4 -26 42 -26 32 0 44 4 44 15 0 8 -4 15 -10 15 -20 0 -10 74 16
119 38 65 54 81 81 81 23 0 23 -2 23 -99 0 -80 -3 -100 -16 -105 -28 -11 -4
-26 42 -26 32 0 44 4 44 15 0 8 -4 15 -10 15 -6 0 -10 39 -10 96 0 80 3 99 18
110 14 11 1 13 -90 14 -60 0 -108 -3 -108 -6 0 -4 7 -12 16 -19 15 -10 14 -15
-6 -55 l-22 -44 -24 44 c-13 25 -23 53 -24 63 0 13 -9 17 -40 17 -22 0 -40 -4
-40 -9z"/>
<path d="M8980 1510 c0 -5 5 -10 10 -10 16 0 12 -161 -5 -194 -8 -15 -15 -30
-15 -32 0 -2 20 -4 45 -4 33 0 45 4 45 15 0 8 -4 15 -10 15 -13 0 -22 56 -18
113 l3 48 70 -96 c39 -52 76 -95 83 -95 9 0 12 28 12 104 0 80 4 108 15 120
23 22 19 26 -30 26 -25 0 -45 -2 -45 -3 0 -2 7 -18 16 -35 9 -18 14 -49 12
-74 l-3 -43 -58 78 c-53 70 -62 77 -93 77 -19 0 -34 -4 -34 -10z"/>
<path d="M6009 951 c-18 -14 -24 -29 -24 -61 0 -32 6 -47 24 -61 30 -25 72
-24 99 1 76 71 -19 186 -99 121z"/>
<path d="M3470 801 c-28 -8 -39 -43 -20 -67 10 -12 8 -14 -14 -14 -19 0 -30
-8 -38 -26 -17 -38 7 -76 55 -88 l37 -10 0 -68 c0 -51 3 -68 14 -68 20 0 25
22 20 85 -4 52 -3 56 21 65 31 12 43 55 24 89 -9 16 -32 32 -57 41 -51 18 -55
35 -6 25 26 -4 35 -3 32 6 -7 21 -42 37 -68 30z"/>
<path d="M3873 802 c-35 -5 -29 -32 7 -32 17 0 39 -9 50 -20 41 -41 13 -110
-44 -110 -40 0 -61 22 -70 74 -10 56 -45 86 -99 86 -55 0 -110 -45 -78 -64 4
-3 16 3 26 14 24 26 76 26 100 0 39 -43 9 -110 -51 -110 -18 0 -36 5 -39 10
-3 6 -15 10 -26 10 -17 0 -19 -8 -19 -84 0 -120 -4 -117 187 -114 135 3 157 5
167 20 16 27 -10 50 -28 25 -12 -16 -29 -17 -152 -15 l-139 3 -3 58 -3 58 35
-7 c27 -5 45 -1 72 15 32 19 39 20 53 8 41 -37 116 -27 145 18 20 31 20 89 0
120 -17 26 -57 43 -91 37z"/>
<path d="M4638 803 c-31 -8 -21 -33 12 -33 17 0 39 -9 50 -20 41 -41 13 -110
-44 -110 -41 0 -61 22 -69 75 -8 54 -45 85 -101 85 -29 0 -49 -6 -64 -20 -37
-35 -24 -61 16 -30 49 39 115 13 115 -45 0 -52 -52 -83 -99 -59 -50 26 -54 21
-54 -69 0 -118 -2 -117 186 -117 155 0 174 5 174 42 0 22 -26 24 -34 3 -5 -13
-28 -15 -148 -13 l-143 3 -3 58 -3 58 35 -7 c27 -4 44 -1 70 14 l35 21 38 -21
c46 -25 83 -20 118 18 28 30 34 58 23 101 -12 45 -66 77 -110 66z"/>
<path d="M5064 798 c-41 -11 -65 -39 -71 -85 -4 -32 0 -45 21 -70 33 -39 73
-49 119 -29 39 16 51 33 61 85 3 19 14 43 23 53 21 24 68 23 93 -2 38 -38 21
-92 -35 -110 -47 -15 -49 -45 -3 -36 85 17 118 114 59 170 -34 33 -87 37 -127
11 -22 -14 -28 -15 -47 -2 -32 20 -58 25 -93 15z"/>
<path d="M5458 792 c-59 -30 -68 -122 -17 -165 33 -26 50 -5 21 26 -43 45 -18
117 40 117 32 0 57 -28 65 -74 3 -20 10 -36 14 -36 5 0 9 3 10 8 6 72 27 102
69 102 55 0 82 -77 40 -115 -24 -22 -25 -31 -5 -39 27 -10 55 33 55 86 0 39
-5 54 -25 73 -29 30 -88 34 -123 9 -17 -12 -26 -13 -36 -4 -30 24 -73 29 -108
12z"/>
<path d="M6450 795 c-13 -16 -3 -25 30 -25 33 0 63 -31 63 -65 0 -53 -63 -84
-107 -52 -9 7 -22 33 -27 57 -14 64 -42 90 -95 90 -57 0 -93 -31 -101 -86 -4
-35 -1 -46 24 -73 33 -38 95 -49 101 -18 3 13 -3 17 -25 17 -61 0 -90 56 -53
103 29 36 71 36 99 1 12 -15 21 -37 21 -51 0 -55 63 -102 117 -88 65 16 99 86
69 143 -19 36 -27 42 -72 52 -22 5 -37 4 -44 -5z"/>
<path d="M6944 798 c-39 -10 -62 -34 -46 -50 7 -7 17 -6 33 6 31 21 72 20 92
-2 22 -25 21 -75 -1 -95 -23 -21 -70 -22 -92 -2 -14 13 -19 13 -29 2 -8 -11
-6 -18 10 -33 28 -25 99 -26 126 -1 19 16 21 16 59 -5 47 -25 83 -20 120 17
30 30 33 101 7 134 -30 36 -113 48 -113 15 0 -9 11 -14 30 -14 37 0 70 -31 70
-65 0 -54 -78 -87 -112 -47 -9 9 -18 34 -22 54 -12 68 -67 104 -132 86z"/>
<path d="M7615 803 c-11 -3 -32 -17 -47 -31 -37 -35 -39 -97 -4 -135 39 -42
106 -49 106 -12 0 10 -10 15 -34 15 -60 0 -87 64 -46 108 43 46 94 22 114 -53
15 -60 63 -100 108 -91 27 5 27 5 30 -56 l3 -61 45 -13 c85 -26 80 -36 80 156
0 144 -2 170 -15 170 -13 0 -15 -23 -15 -150 0 -158 1 -157 -47 -144 -20 6
-23 13 -23 63 0 34 6 65 15 78 33 46 16 120 -32 142 -36 16 -83 14 -83 -4 0
-10 10 -15 30 -15 36 0 70 -31 70 -64 0 -35 -31 -68 -63 -68 -28 0 -67 26 -67
46 0 76 -62 134 -125 119z"/>
<path d="M8083 798 c-40 -10 -65 -46 -65 -92 0 -47 18 -75 59 -93 55 -23 123
4 123 49 0 24 -12 23 -35 -2 -41 -46 -115 -13 -115 51 0 52 71 79 112 42 14
-13 21 -14 30 -5 28 28 -53 65 -109 50z"/>
<path d="M4181 774 c-30 -39 -29 -107 3 -139 67 -67 172 -22 170 74 -2 45 -29
91 -55 91 -24 0 -24 -4 2 -40 42 -56 17 -120 -47 -120 -58 0 -87 77 -44 120
11 11 20 25 20 30 0 19 -29 10 -49 -16z"/>
<path d="M5822 784 c-24 -17 -30 -44 -8 -44 7 0 19 7 26 15 28 34 110 3 110
-41 0 -19 -19 -56 -34 -66 -18 -13 -60 -9 -82 7 -12 8 -24 11 -28 8 -27 -27
37 -68 90 -58 18 3 40 12 48 21 13 13 19 12 53 -6 21 -11 43 -20 50 -20 9 0
13 -20 13 -70 l0 -70 35 0 c24 0 35 5 35 15 0 8 -9 15 -20 15 -17 0 -20 7 -20
48 0 26 -5 53 -12 60 -9 9 -9 12 3 12 31 0 64 49 64 95 0 61 -33 95 -93 95
-51 0 -55 -23 -5 -28 59 -6 86 -70 48 -112 -39 -43 -115 -10 -115 49 0 17 -11
42 -26 60 -21 26 -33 31 -68 31 -23 0 -52 -7 -64 -16z"/>
<path d="M7347 793 c-11 -11 -8 -48 5 -61 9 -9 6 -12 -15 -12 -54 0 -63 -85
-12 -108 14 -7 35 -12 45 -12 18 0 20 -7 20 -70 0 -56 3 -70 15 -70 12 0 15
14 15 70 0 66 2 71 25 80 14 5 27 21 31 36 10 41 -14 77 -64 92 -51 17 -57 37
-7 28 27 -5 35 -4 35 7 0 8 -7 18 -16 21 -21 8 -69 8 -77 -1z"/>
</g>
</svg>
